<svg xmlns="http://www.w3.org/2000/svg" viewBox="190.776 120.31 158.976 157.659" width="158.976" height="157.659" role="img" aria-label="Reliance West Africa logo">
  <path d="M298.841,232.4 C303.907,226.719 308.239,220.71 312.162,214.565 C309.762,223.998 304.582,232.964 297.79,241.125 C313.803,252.02 329.776,262.951 345.752,273.874 C333.717,273.898 321.682,273.879 309.644,273.885 C304.667,273.844 299.678,273.969 294.708,273.825 C288.436,269.682 282.338,265.385 276.121,261.193 C270.233,265.651 264.028,269.902 257.468,273.819 C251.506,273.961 245.515,273.868 239.542,273.857 C263.773,264.123 283.827,249.343 298.841,232.4" fill="#ffffff"></path>
  <path d="M206.462,214.189 L206.462,269.162 C207.605,268.997 208.741,268.769 209.86,268.427 C212.178,267.717 214.209,266.4 216.479,265.583 C218.523,264.846 220.637,264.33 222.669,263.564 L222.669,206.089 L206.462,214.189" fill="#ffffff"></path>
  <path d="M255.281,179.379 L255.281,249.791 L267.23,236.07 L267.23,189.327 L255.281,179.379" fill="#ffffff"></path>
  <path d="M229.378,162.473 L243.361,152.06 L243.361,257.346 C239.008,255.448 234.5,263.025 229.378,261.524 L229.378,162.473" fill="#ffffff"></path>
  <path d="M246.142,248.768 C242.333,251.492 238.338,254.082 234.173,256.5 C222.363,263.25 209.126,268.806 194.776,272.018 C196.093,271.994 197.409,271.918 198.703,271.728 C210.634,270.198 222.127,267.04 232.72,262.743 C237.076,260.972 241.271,259.002 245.32,256.88 C245.511,254.177 245.956,251.462 246.142,248.768" fill="#ffffff"></path>
  <path d="M235.04,258.122 C306.81,216.456 328.607,124.31 201.467,157.991 C245.415,142.251 299.475,143.143 308.147,165.657 C310.832,172.662 310.522,180.082 308.936,187.207 C306.396,198.278 300.714,208.851 293.477,218.694 C286.301,228.298 277.464,237.237 267.132,245.138 C257.284,252.682 246.05,259.299 233.587,264.365 C222.994,268.662 211.502,271.82 199.57,273.35 C198.276,273.54 196.96,273.616 195.644,273.64 C209.994,270.428 223.23,264.872 235.04,258.122" fill="#ffffff"></path>
</svg>